# xmcd
#
# Track frame offsets: 
#        150
#        3167
#        6971
#        25813
#        39817
#        51451
#        103541
#        119765
#        133451
#        138209
#        154496
#        171822
#        195451
#        205058
#        222081
#        235450
#        250490
#        269700
#        288223
#        305088
#        328200
#        345413
#        352205
#
# Disc length: 4735 seconds
#
# Revision: 0
# Processed by: cddbd v1.5.2PL0 Copyright (c) Steve Scherf et al.
# Submitted via: ExactAudioCopy v0.95b4
#
DISCID=67127d17
DTITLE=Various Artist - Turf Talk - Presents West Coast Gangsta V17
DYEAR=2007
DGENRE=Rap
TTITLE0=Turf Talk - Intro
TTITLE1=Turf Talk - Freestyle 1
TTITLE2=Snoop - Candy feat E-40
TTITLE3=Mistah Fab - Ghost Ride It
TTITLE4=The Pack - Vans (Remix feat Lil' Wayne)
TTITLE5=Game - One Blood (Remix feat Everyone)
TTITLE6=Boss Hog - Westcoast Gangsta
TTITLE7=Mitchy Slick - Coldest Nigga Out
TTITLE8=Turf Talk - Talks About Reppin' Cali
TTITLE9=E-40 - Muscle Cars feat. Keak da Sneak
TTITLE10=A-Wax - Cindarella Story (Husalah Diss)
TTITLE11=Husalah - Fuck A-Wax (A-Wax Diss)
TTITLE12=Too Short, Fab, and Traxamillion - Slideshow
TTITLE13=Tupac - Untouchable feat Krazie Bone
TTITLE14=The Pack - At the Club
TTITLE15=Keak da Sneak - Soil Raps
TTITLE16=Federation - Rims
TTITLE17=Messy Marv, Guce, and Daz - So Hood (Remix)
TTITLE18=Crooked I - Say Dre
TTITLE19=Jayo Felony - Back 2 Back
TTITLE20=San Quinn - Bring the Game to the Table
TTITLE21=Turf Talk - Freestyle 2
TTITLE22=Turf Talk/ Speaks on E-40
EXTD=
EXTT0=
EXTT1=
EXTT2=
EXTT3=
EXTT4=
EXTT5=
EXTT6=
EXTT7=
EXTT8=
EXTT9=
EXTT10=
EXTT11=
EXTT12=
EXTT13=
EXTT14=
EXTT15=
EXTT16=
EXTT17=
EXTT18=
EXTT19=
EXTT20=
EXTT21=
EXTT22=
PLAYORDER=
